<svg width="202" height="72" viewBox="0 0 202 72" fill="none" xmlns="http://www.w3.org/2000/svg">
<g clip-path="url(#clip0_1203_403)">
<path d="M167.89 31.098L169.494 36.3507H166.066L168.001 31.098H167.89ZM160.564 42.105H164.462L165.375 39.4196H170.296L171.208 42.105H175.106L169.715 26.8192H165.928L160.564 42.105ZM155.975 42.105H159.873V26.8192H155.975V42.105ZM143.368 36.8523C143.368 40.5115 146.105 42.105 149.312 42.105C152.298 42.105 155.256 40.8951 155.256 37.2064C155.256 34.5211 153.182 33.5473 151.247 32.9276C149.063 32.3079 147.128 32.3079 147.128 31.098C147.128 30.1242 148.261 29.8882 148.842 29.8882C149.975 29.8882 151.137 30.2423 151.137 31.5997H154.565C154.565 28.2947 151.828 26.7012 149.063 26.7012C146.437 26.7012 143.34 27.911 143.34 31.3341C143.34 34.0194 145.635 34.9933 147.46 35.4949C149.533 36.1146 151.468 36.3507 151.468 37.7081C151.468 38.918 150.335 39.1836 149.174 39.1836C147.681 39.1836 146.658 38.5639 146.658 36.7343H143.23L143.368 36.8523ZM136.843 31.098L138.447 36.3507H135.019L136.954 31.098H136.843ZM129.655 42.105H133.443L134.355 39.4196H139.387L140.299 42.105H144.197L138.806 26.8192H134.908L129.655 42.105ZM117.048 42.105H118.541V29.1504L126.89 42.105H128.494V26.8192H127.112V39.6557L118.652 26.9668H117.048V42.105ZM114.062 42.105H115.445V26.8192H114.062V42.105ZM99.8796 42.105H103.64V35.9966H108.561V42.105H112.238V26.8192H108.561V32.3079H103.64V26.9668H99.8519V42.105H99.8796ZM98.7184 32.3374C98.7184 28.9144 95.622 26.8487 92.6638 26.8487C88.5444 26.8487 85.8074 30.2718 85.8074 34.5506C85.8074 38.7114 88.5444 42.1345 92.6638 42.1345C96.092 42.1345 98.7184 39.9213 98.9672 36.0261H95.5391C95.3179 37.8557 94.4055 38.8295 92.6638 38.8295C90.3691 38.8295 89.4568 36.6163 89.4568 34.5506C89.4568 32.3374 90.3691 30.1537 92.6638 30.1537C94.1567 30.1537 95.2902 30.8915 95.4008 32.3669H98.829H98.7184V32.3374ZM73.8917 42.105H85.5586V38.6819H77.5411V35.7605H84.6463V32.6915H77.7899V29.8882H85.3374V26.9668H73.8917V42.105ZM72.7305 26.8192H60.7042V30.2423H64.9342V42.105H68.7218V30.2423H72.9517V26.8192H72.7305Z" fill="black"/>
<path d="M48.0127 33.38C48.2536 33.5579 48.5146 33.38 48.4343 33.0022L47.1091 30.4238H46.6071L38.2944 46.7166C37.9531 47.0945 37.4712 47.0945 37.2904 46.7166L34.4593 41.4709L34.2987 40.7374V36.1363C34.2987 35.6695 34.138 35.4028 33.877 35.2249L27.2308 28.7789C26.8092 28.5122 26.9899 27.8676 27.5722 27.8676H39.459L42.3704 29.7125C42.5311 29.8903 42.5311 30.0904 42.3704 30.1793L41.2059 32.5798C41.2059 32.7577 41.0452 32.8466 40.9649 32.7577L38.6357 31.3796L38.1338 31.2017H35.0416C34.8006 31.2017 34.7002 31.5796 34.881 31.7574L36.9692 33.6023C37.2101 33.869 37.3105 34.2469 37.3105 34.5137V40.5818C37.3105 40.9596 37.7322 41.0486 37.8928 40.7596L46.5469 24.2C46.7075 23.9333 47.3701 23.9333 47.3701 24.2L56.2651 41.2264C56.6868 41.7821 56.1045 42.3378 55.6025 42.1377L45.2819 35.425C45.1213 35.425 45.041 35.1582 45.1213 35.0471L46.3662 32.7354C46.3662 32.5576 46.6071 32.5576 46.7878 32.5576L48.0327 33.469V33.38H48.0127Z" fill="#E10000"/>
</g>
<defs>
<clipPath id="clip0_1203_403">
<rect width="148" height="23" fill="white" transform="translate(27 24)"/>
</clipPath>
</defs>
</svg>
