<svg width="202" height="72" viewBox="0 0 202 72" fill="none" xmlns="http://www.w3.org/2000/svg">
<g clip-path="url(#clip0_1203_410)">
<path d="M45.147 28.1648L34.9119 24.0899C34.5296 23.97 34.412 23.97 34.0296 24.0899L23.7945 28.1648C23.3827 28.3446 23.2945 28.4944 23.2945 28.9138V42.8763C23.2945 43.3257 23.3827 43.4157 23.7945 43.6254L34.0296 47.8801C34.2354 47.9699 34.3531 47.9999 34.5002 47.9999C34.6178 47.9999 34.7649 47.9699 34.9413 47.8801L45.1764 43.6254C45.5882 43.4756 45.6764 43.3257 45.6764 42.8763V28.9138C45.647 28.4944 45.5588 28.3446 45.147 28.1648ZM43.0589 42.9363L34.4707 46.4419L25.8827 42.9363L34.4707 39.7902L43.0589 42.9363ZM25.9121 28.8539L34.4707 25.5281L43.0294 28.8539L34.4707 32.03L25.9121 28.8539ZM37.7354 38.5018C37.9119 38.4419 38.0295 38.2621 38.0295 38.0823V33.7378C38.0295 33.558 37.9119 33.3783 37.7354 33.3183L36.5883 32.8389L44.1765 29.9925V41.8276L36.5883 38.9812L37.7354 38.5018ZM36.5295 34.4869V37.3333L34.4707 38.1723L32.4414 37.3333V34.4869L34.4707 33.6479L36.5295 34.4869ZM31.2355 33.3183C31.0591 33.3783 30.9414 33.558 30.9414 33.7677V38.0823C30.9414 38.2621 31.0591 38.4419 31.2355 38.5018L32.3826 38.9812L24.7945 41.8276V29.9925L32.3826 32.8689L31.2355 33.3183Z" fill="black"/>
<path d="M56.9762 43.4809H60.5438V31.409H65.6972V28.5186H51.802V31.409H56.9762V43.4809Z" fill="black"/>
<path d="M66.7881 43.4809H70.3558V37.0412H77.1157V43.4809H80.6834V28.5186H77.1157V34.1294H70.3558V28.5186H66.7881V43.4809Z" fill="black"/>
<path d="M95.0886 34.257H86.8897V31.4303H95.527V28.5186H83.3219V43.4809H95.527V40.5692H86.8897V37.1687H95.0886V34.257Z" fill="black"/>
<path d="M102.106 43.4809H110.098C113.707 43.4809 115.815 41.8444 115.815 39.0177C115.815 37.1262 114.5 35.9997 113.081 35.5534C114.229 35.1284 115.271 34.1082 115.271 32.3654C115.271 30.2613 113.749 28.5186 110.243 28.5186H102.106V43.4809ZM105.612 34.3632V31.239H109.514C110.744 31.239 111.6 31.6853 111.6 32.8117C111.6 33.7256 111.078 34.3632 109.492 34.3632H105.612ZM105.612 37.0837H109.701C111.266 37.0837 112.059 37.7 112.059 38.8902C112.059 40.3779 111.016 40.7817 109.639 40.7817H105.612V37.0837Z" fill="black"/>
<path d="M117.459 43.4809H128.767V40.5692H121.026V28.5186H117.459V43.4809Z" fill="black"/>
<path d="M137.174 28.2002C132.188 28.2002 129.184 31.8345 129.184 35.9577C129.184 40.3358 132.021 43.8002 137.007 43.8002C142.348 43.8002 145.061 40.1021 145.061 35.9364C145.061 31.8558 142.307 28.2002 137.174 28.2002ZM137.07 31.0269C140.032 31.0269 141.305 33.3435 141.305 35.9789C141.305 38.4231 140.158 40.9735 137.216 40.9735C134.337 40.9735 132.939 38.7418 132.939 35.9151C132.939 33.386 134.211 31.0269 137.07 31.0269Z" fill="black"/>
<path d="M157.56 38.7206C156.976 40.1659 156.058 40.9947 153.972 40.9947C151.072 40.9947 149.778 38.6355 149.778 35.8726C149.778 33.1522 151.197 31.0056 153.951 31.0056C156.455 31.0056 157.247 32.3871 157.56 33.2373H161.17C160.732 30.7506 158.5 28.2002 153.993 28.2002C148.798 28.2002 146.023 31.9195 146.023 36.0214C146.023 40.1021 148.548 43.8002 153.805 43.8002C158.416 43.8002 160.461 41.356 161.129 38.7206H157.56Z" fill="black"/>
<path d="M162.435 43.4809H166.003V38.5288L167.86 36.9561L173.263 43.4809H177.686L170.405 34.9583L177.311 28.5186H172.951C170.155 31.1752 168.11 33.0668 166.003 35.0646V28.5186H162.435V43.4809Z" fill="black"/>
</g>
<defs>
<clipPath id="clip0_1203_410">
<rect width="155" height="24" fill="white" transform="translate(23 24)"/>
</clipPath>
</defs>
</svg>
