<svg width="202" height="72" viewBox="0 0 202 72" fill="none" xmlns="http://www.w3.org/2000/svg">
<g clip-path="url(#clip0_1203_388)">
<path fill-rule="evenodd" clip-rule="evenodd" d="M62.2089 50H64.3722V38.8H62.2089V50ZM70.1391 49.832H72.0768V42.7655L80.2328 50V38.968H78.3006V45.9137L70.1391 38.8V49.832ZM84.6562 47.1195C85.7108 47.9158 86.9766 48.376 88.3337 48.376C89.6556 48.376 90.5829 47.935 90.5829 46.9611C90.5829 46.1124 89.9915 45.7799 88.9558 45.408L87.2791 44.8436C85.7333 44.3116 84.5577 43.5346 84.5577 41.7487C84.5577 39.8386 86.3374 38.8 88.4656 38.8C89.7694 38.8 90.9576 39.1176 91.8858 39.6802V41.5746C90.9206 40.8834 89.8642 40.4074 88.5071 40.4074C87.3387 40.4074 86.4656 40.83 86.4656 41.7111C86.4656 42.5074 87.0137 42.8259 87.9789 43.1461L89.847 43.7814C91.6574 44.3982 92.488 45.3546 92.488 46.9279C92.488 48.9071 90.6912 50 88.3337 50C86.7843 50 85.467 49.58 84.6562 49.0497V47.1195ZM97.5353 50H99.6978V38.8H97.5353V50ZM109.843 48.3051C112.281 48.3051 113.584 46.7896 113.584 44.3974C113.584 41.9876 112.28 40.4774 109.843 40.4774H107.432V48.3051H109.843ZM105.464 38.8H109.915C113.342 38.8 115.557 40.9875 115.557 44.3974C115.557 47.8099 113.342 50 109.915 50H105.464V38.8ZM126.373 38.8V40.4774H121.138V43.1724H125.833V44.8305H121.137V48.3051H126.373V50H119.163V38.8H126.373ZM134.049 43.8715H136.195C137.466 43.8715 138.182 43.196 138.182 42.1574C138.182 41.1188 137.466 40.4424 136.195 40.4424H134.049V43.8715ZM134.049 45.4552V50H132.139V38.8H136.231C138.565 38.8 140.074 39.9646 140.074 42.1574C140.074 44.0325 139.236 45.1096 137.451 45.3861L141.512 50H139.339L135.408 45.4561H134.05L134.049 45.4552ZM61.4531 27.7663C62.2991 27.4661 62.9583 26.5657 62.9583 25.3276C62.9583 23.2644 61.4531 22.1951 59.045 22.1951H55V33.7127H59.4207C61.8287 33.7127 63.3339 32.5682 63.3339 30.4114C63.3339 29.1916 62.5438 28.1224 61.4531 27.7663ZM56.8997 27.0348V23.8839H59.027C60.3633 23.8839 61.0775 24.3529 61.0775 25.4405C61.0775 26.5281 60.3624 27.0348 59.027 27.0348H56.8997ZM56.8997 28.6483H59.3827C60.701 28.6483 61.4152 29.2853 61.4152 30.3361C61.4152 31.3678 60.7001 32.0249 59.3836 32.0249H56.9006V28.6474L56.8997 28.6483ZM72.1599 33.9C74.9255 33.9 76.7882 32.2865 76.7882 29.1356V22.1951H74.8316V28.9099C74.8316 31.1236 73.8907 32.1561 72.1599 32.1561C70.429 32.1561 69.489 31.1236 69.489 28.9099V22.1951H67.5324V29.1164C67.5324 32.2865 69.4132 33.9 72.1599 33.9ZM81.3948 32.8868C82.2039 33.4503 83.5212 33.9 85.0634 33.9C87.4155 33.9 89.2023 32.7362 89.2023 30.6362C89.2023 28.9667 88.3753 27.9535 86.5685 27.2972L84.7067 26.6218C83.7469 26.2849 83.2016 25.9471 83.2016 25.1028C83.2016 24.1647 84.0666 23.715 85.2331 23.715C86.5875 23.715 87.6412 24.2207 88.601 24.9531V22.945C87.6791 22.3456 86.4936 22.0079 85.1952 22.0079C83.0697 22.0079 81.3009 23.1147 81.3009 25.1404C81.3009 27.0347 82.4675 27.8599 84.0097 28.4225L85.6846 29.0228C86.7193 29.4165 87.3026 29.7735 87.3026 30.6739C87.3026 31.7055 86.3807 32.1745 85.0634 32.1745C83.709 32.1745 82.4485 31.6862 81.3948 30.8427V32.8868ZM96.1936 22.1951H94.2379V33.7119H96.1936V22.1951ZM101.775 33.6979H103.661V26.2053L111.595 33.8764V22.1776H109.716V29.5425L101.775 22V33.6979ZM123.822 22.1977V23.9224H118.742V26.6944H123.297V28.3998H118.742V31.9724H123.822V33.7154H116.824V22.1977H123.822ZM128.377 32.8789C129.186 33.4424 130.502 33.8921 132.046 33.8921C134.397 33.8921 136.184 32.7293 136.184 30.6284C136.184 28.9589 135.357 27.9465 133.551 27.2894L131.688 26.6148C130.728 26.277 130.183 25.9392 130.183 25.0949C130.183 24.1569 131.048 23.7071 132.214 23.7071C133.569 23.7071 134.622 24.2137 135.582 24.9452V22.938C134.66 22.3378 133.475 22 132.176 22C130.051 22 128.282 23.1069 128.282 25.1325C128.282 27.0269 129.449 27.852 130.991 28.4146L132.666 29.0149C133.701 29.4086 134.284 29.7656 134.284 30.666C134.284 31.6976 133.363 32.1666 132.045 32.1666C130.69 32.1666 129.43 31.6793 128.377 30.8349V32.8789ZM140.193 32.8789C141.002 33.4424 142.319 33.8921 143.861 33.8921C146.213 33.8921 148 32.7293 148 30.6284C148 28.9589 147.172 27.9465 145.366 27.2894L143.503 26.6148C142.545 26.277 141.998 25.9392 141.998 25.0949C141.998 24.1569 142.864 23.7071 144.03 23.7071C145.384 23.7071 146.439 24.2137 147.398 24.9452V22.938C146.477 22.3378 145.291 22 143.993 22C141.867 22 140.099 23.1069 140.099 25.1325C140.099 27.0269 141.265 27.852 142.807 28.4146L144.482 29.0149C145.517 29.4086 146.1 29.7656 146.1 30.666C146.1 31.6976 145.178 32.1666 143.861 32.1666C142.507 32.1666 141.246 31.6793 140.193 30.8349V32.8789Z" fill="#1F607B"/>
</g>
<defs>
<clipPath id="clip0_1203_388">
<rect width="93" height="28" fill="white" transform="translate(55 22)"/>
</clipPath>
</defs>
</svg>
