<svg width="200" height="70" viewBox="0 0 200 70" fill="none" xmlns="http://www.w3.org/2000/svg">
<path d="M6 23.1468H16.1304V27.9184H14.2952L17.5252 40.9852L20.9754 27.9184H19.2136V23.1468H28.6099V27.9184H26.9215L20.9754 46.7111H13.4877L7.54159 27.9184H6V23.1468Z" fill="black"/>
<path fill-rule="evenodd" clip-rule="evenodd" d="M32.7941 39.2234L43.2916 39.15C43.2916 39.15 44.3936 28.8051 34.9964 28.8727C25.3799 28.9419 26.3342 39.0765 26.3342 39.0765C26.3342 39.0765 26.0376 46.8591 34.5559 46.9313C42.9246 47.0022 42.998 40.6181 42.998 40.6181H36.9784C36.9784 40.6181 37.0522 42.8204 34.8496 42.8204C32.7941 42.8204 32.7941 40.6915 32.7941 40.6915V39.2234ZM34.8495 33.057C37.1986 33.057 36.905 35.7732 36.905 35.7732H32.7941C32.7941 35.7732 32.5005 33.057 34.8495 33.057Z" fill="black"/>
<path d="M44.3927 34.1581V29.3132H51.3665V31.9559C51.3665 31.9559 52.6879 28.8598 56.7988 28.7993C61.7906 28.7259 61.6438 32.9102 61.6438 32.9102V41.8661H63.112V46.5375H55.4774V35.92C55.4774 35.92 55.4774 34.3643 53.9358 34.305C52.0272 34.2316 51.9538 36.5072 51.9538 36.5072V41.7927H53.1284V46.6003H44.3927V41.7927H45.7875V34.1581H44.3927Z" fill="black"/>
<path d="M71.4073 23.8075L65.6814 25.1289V29.3132H63.6993V34.0847H65.3143V43.8481C65.7548 46.1238 67.3698 46.9313 70.1593 46.9313C71.8685 46.8867 72.7079 46.7757 73.9766 46.4174V42.2331H72.6552C71.9945 42.1597 71.4073 41.7193 71.4073 40.4713V34.0847H74.1234V29.2397H71.4073V23.8075Z" fill="black"/>
<path d="M75.0775 34.1581V29.3132H82.7854L82.712 39.7372C82.7472 41.1578 83.0619 41.6484 84.327 41.7927C85.5148 41.5622 85.9103 41.1404 86.0154 39.7372V34.0847H84.7675V29.3132H92.2552V41.7927H93.65V46.7111H86.5293V44.729C85.3395 46.388 83.8866 47.0047 81.5375 46.9313C78.6745 46.9313 76.6925 45.4631 76.4723 42.3065V34.1581H75.0775Z" fill="black"/>
<path d="M95.0448 34.0113V29.3132H101.945V32.1761C102.679 29.6068 104.735 28.5057 107.818 29.3132V34.7454H106.056C104.001 34.7454 102.533 35.6263 102.533 38.1956V41.7927H104.588V46.5642H95.0448V41.7927H96.513V34.0113H95.0448Z" fill="black"/>
<path fill-rule="evenodd" clip-rule="evenodd" d="M125.95 39.1499H115.453V39.884C115.453 41.7927 116.407 42.8204 117.508 42.8204C118.976 42.8204 119.71 41.9395 119.71 40.6915H125.73C125.289 44.2886 122.573 46.9313 119.123 46.9313H116.113C112.076 46.7111 109.139 43.1874 109.139 39.2968V36.654C109.139 31.8825 113.103 28.9461 116.333 28.9461H118.829C122.206 29.1663 125.51 31.442 125.877 36.3604L125.95 39.1499ZM115.599 35.8466H119.784V35.1125C119.784 33.7177 118.609 33.1304 117.802 33.1304C116.26 33.1304 115.599 34.305 115.599 35.1125V35.8466Z" fill="black"/>
<path fill-rule="evenodd" clip-rule="evenodd" d="M127.565 27.6982V23H139.898C144.302 23 146.284 26.0098 146.284 28.2854V30.3409C146.284 31.8091 145.036 33.6443 142.54 34.5252C144.522 34.5252 147.092 36.8743 146.945 39.3702V41.5724C146.945 43.7013 144.302 46.5642 140.779 46.5642H127.565V41.8661H129.694V27.6982H127.565ZM135.787 32.5431V27.6247H138.576C139.531 27.6247 140.265 28.9461 140.265 29.7536V30.3409C140.265 31.2952 139.457 32.5431 138.356 32.5431H135.787ZM135.86 36.9477V41.7927H138.809C140.072 41.7927 140.999 40.5633 140.999 39.6233V39.0448C140.999 38.2493 140.156 36.9477 139.061 36.9477H135.86Z" fill="#F1191C"/>
<path fill-rule="evenodd" clip-rule="evenodd" d="M164.857 39.1499H154.359V39.884C154.359 41.7927 155.314 42.8204 156.415 42.8204C157.883 42.8204 158.617 41.9395 158.617 40.6915H164.637C164.196 44.2886 161.48 46.9313 158.03 46.9313H155.02C150.983 46.7111 148.046 43.1874 148.046 39.2968V36.654C148.046 31.8825 152.01 28.9461 155.24 28.9461H157.736C161.113 29.1663 164.416 31.442 164.783 36.3604L164.857 39.1499ZM154.506 35.8466H158.69V35.1125C158.69 33.7177 157.516 33.1304 156.708 33.1304C155.167 33.1304 154.506 34.305 154.506 35.1125V35.8466Z" fill="#F1191C"/>
<path fill-rule="evenodd" clip-rule="evenodd" d="M171.83 34.8922H166.031C166.031 31.2952 168.968 28.8727 172.638 28.8727H174.4C177.41 28.8727 181.227 31.3686 181.08 33.7177V41.7927H182.622V46.5642H175.281V44.5822C174.183 46.0833 172.858 46.8579 171.243 46.8579H169.555C166.545 46.8579 165.517 44.0683 165.517 42.8204V41.0586C165.517 37.902 168.894 35.9934 171.83 35.9934H175.134V33.8645C175.134 33.3507 174.547 32.7634 173.666 32.7634C172.418 32.7634 171.83 33.4241 171.83 34.8922ZM175.208 38.8563V40.1043C175.208 41.9395 174.327 43.0406 173.226 43.0406C172.491 43.0406 171.611 42.4533 171.611 41.499V41.0586C171.611 40.3245 172.271 38.8563 174.327 38.8563H175.208Z" fill="#F1191C"/>
<path d="M191.284 23.8075L185.558 25.1289V29.3132H183.576V34.0847H185.191V43.8481C185.631 46.1238 187.246 46.9313 190.036 46.9313C191.745 46.8867 192.584 46.7757 193.853 46.4174V42.2331H192.532C191.871 42.1597 191.284 41.7193 191.284 40.4713V34.0847H194V29.2397H191.284V23.8075Z" fill="#F1191C"/>
</svg>
