<svg width="200" height="72" xmlns="http://www.w3.org/2000/svg">
 <!-- Created with Method Draw - http://github.com/duopixel/Method-Draw/ -->

 <g>
  <title>background</title>
  <rect fill="none" id="canvas_background" height="74" width="202" y="-1" x="-1"/>
  <g display="none" overflow="visible" y="0" x="0" height="100%" width="100%" id="canvasGrid">
   <rect fill="url(#gridpattern)" stroke-width="0" y="0" x="0" height="100%" width="100%"/>
  </g>
 </g>
 <g>
  <title>Layer 1</title>
  <g stroke="null" id="svg_9">
   <g stroke="null" transform="matrix(1.2548986844402303,0,0,1.2548986844402303,-13.804802760055416,-11.221969632723422) " id="svg_8" class="layer">
    <title stroke="null" transform="translate(0,-1.0662513971328735) translate(-7.570332050323486,0) translate(0,-2.1357476711273193) translate(-15.163742065429688,0) translate(0,-2.2684545516967773) translate(9.073813438415527,0) translate(12.476475715637207,5.671125411987305) translate(-237.05303955078125,-189.41558837890625) translate(257.9252624511719,0) translate(0,216.844970703125) ">Layer 1</title>
    <path stroke="null" id="svg_6" fill="var(--yb-logo-brand, #6001D2)" d="m39.917938,32.916424l0,1.00617c-0.578,-0.74856 -1.6482,-1.26378 -2.8877,-1.26378c-2.9295,0 -5.1096,2.59139 -5.1096,5.63414c0,3.1285 2.1581,5.634 5.1096,5.634c1.2395,0 2.3097,-0.4931 2.8877,-1.2857l0,1.0083l3.6482,0l0,-10.73313l-3.6482,0zm4.9184,-4.75561l0,15.49094l3.7844,0l0,-5.7243c0,-1.11407 0.534,-1.77897 1.3889,-1.77897c0.8549,0 1.3054,0.57904 1.3054,1.64907l0,5.8542l3.7668,0l0,-6.74811c0,-2.61338 -1.4109,-4.24263 -3.6789,-4.24263c-0.5398,-0.01967 -1.0767,0.08851 -1.567,0.31574c-0.4903,0.22724 -0.9202,0.56714 -1.2548,0.99207l0,-5.8058l-3.7448,-0.00221zm34.6199,10.12764c0,3.2145 -2.4592,5.6341 -5.7315,5.6341c-3.2724,0 -5.7316,-2.4218 -5.7316,-5.6341c0,-3.21219 2.4592,-5.63402 5.7316,-5.63402c3.2723,0 5.7315,2.42183 5.7315,5.63402zm-12.1048,0c0,3.2145 -2.4592,5.6341 -5.7293,5.6341c-3.2701,0 -5.7315,-2.4218 -5.7315,-5.6341c0,-3.21219 2.4592,-5.63402 5.7315,-5.63402c3.2723,0 5.7293,2.42183 5.7293,5.63402zm-47.663,-5.37644l4.57554,10.81904l-1.64605,3.8991l4.01953,0l6.09418,-14.71814l-4.00639,0l-2.48117,6.29894l-2.45919,-6.29894l-4.09645,0zm18.111,7.58254c-0.2916,0.0065 -0.5816,-0.0458 -0.8526,-0.1538c-0.2711,-0.108 -0.5176,-0.2695 -0.7251,-0.4749c-0.2075,-0.2054 -0.3717,-0.4505 -0.4827,-0.7207c-0.111,-0.2702 -0.1667,-0.56 -0.1637,-0.8522c-0.0027,-0.2922 0.0532,-0.5819 0.1643,-0.85196c0.1112,-0.27008 0.2753,-0.51504 0.4827,-0.72038c0.2075,-0.20533 0.4539,-0.36683 0.7248,-0.47495c0.2709,-0.10811 0.5607,-0.16063 0.8523,-0.15443c0.2895,-0.00324 0.5767,0.0515 0.8448,0.16099c0.2681,0.1095 0.5117,0.27155 0.7164,0.47664c0.2047,0.2051 0.3665,0.44909 0.4758,0.71767c0.1093,0.26862 0.1639,0.55632 0.1606,0.84642c0.0036,0.2901 -0.0508,0.578 -0.16,0.8467c-0.1092,0.2687 -0.271,0.5128 -0.4758,0.718c-0.2047,0.2051 -0.4484,0.3672 -0.7166,0.4766c-0.2683,0.1093 -0.5556,0.1639 -0.8452,0.1603zm25.961,-2.2016c0.0068,-0.2843 -0.0436,-0.567 -0.1484,-0.83118c-0.1048,-0.26422 -0.2617,-0.50454 -0.4613,-0.70659c-0.1996,-0.20206 -0.4379,-0.36169 -0.7006,-0.46934c-0.2626,-0.10765 -0.5442,-0.16113 -0.828,-0.15719c-0.2838,-0.00394 -0.5654,0.04954 -0.8281,0.15719c-0.2626,0.10765 -0.5009,0.26728 -0.7005,0.46934c-0.1997,0.20205 -0.3566,0.44237 -0.4613,0.70659c-0.1048,0.26418 -0.1553,0.54688 -0.1484,0.83118c-0.0069,0.2842 0.0436,0.5668 0.1484,0.8311c0.1047,0.2642 0.2616,0.5045 0.4613,0.7066c0.1996,0.202 0.4379,0.3617 0.7005,0.4693c0.2627,0.1077 0.5443,0.1611 0.8281,0.1572c0.2838,0.0039 0.5654,-0.0495 0.828,-0.1572c0.2627,-0.1076 0.501,-0.2673 0.7006,-0.4693c0.1996,-0.2021 0.3565,-0.4424 0.4613,-0.7066c0.1048,-0.2643 0.1552,-0.5469 0.1484,-0.8311l0,0zm12.1026,0c0.0068,-0.2843 -0.0437,-0.567 -0.1484,-0.83118c-0.1048,-0.26422 -0.2617,-0.50454 -0.4613,-0.70659c-0.1997,-0.20206 -0.438,-0.36169 -0.7006,-0.46934c-0.2627,-0.10765 -0.5443,-0.16113 -0.828,-0.15719c-0.2838,-0.00394 -0.5654,0.04954 -0.8281,0.15719c-0.2627,0.10765 -0.5009,0.26728 -0.7006,0.46934c-0.1996,0.20205 -0.3565,0.44237 -0.4613,0.70659c-0.1047,0.26418 -0.1552,0.54688 -0.1484,0.83118c-0.0068,0.2842 0.0437,0.5668 0.1484,0.8311c0.1048,0.2642 0.2617,0.5045 0.4613,0.7066c0.1997,0.202 0.4379,0.3617 0.7006,0.4693c0.2627,0.1077 0.5443,0.1611 0.8281,0.1572c0.2837,0.0039 0.5653,-0.0495 0.828,-0.1572c0.2626,-0.1076 0.5009,-0.2673 0.7006,-0.4693c0.1996,-0.2021 0.3565,-0.4424 0.4613,-0.7066c0.1047,-0.2643 0.1552,-0.5469 0.1484,-0.8311l0,0zm4.0635,3.0823c-0.0036,0.3245 0.0576,0.6465 0.18,0.947c0.1223,0.3005 0.3033,0.5735 0.5324,0.8029c0.229,0.2295 0.5015,0.4109 0.8015,0.5334c0.3,0.1226 0.6213,0.1839 0.9453,0.1804c0.3349,0.0026 0.667,-0.0616 0.977,-0.1887c0.3099,-0.1272 0.5915,-0.3149 0.8283,-0.5522c0.2369,-0.2373 0.4242,-0.5194 0.5512,-0.8299c0.127,-0.3105 0.191,-0.6432 0.1884,-0.9788c0.0056,-0.3251 -0.0541,-0.648 -0.1757,-0.9494c-0.1216,-0.3015 -0.3025,-0.5754 -0.532,-0.8053c-0.2295,-0.2299 -0.5029,-0.4111 -0.8038,-0.5329c-0.3009,-0.1219 -0.6232,-0.1817 -0.9477,-0.1761c-0.3356,-0.0023 -0.6683,0.0621 -0.9788,0.1894c-0.3106,0.1273 -0.5929,0.315 -0.8306,0.5523c-0.2377,0.2373 -0.426,0.5195 -0.5542,0.8302c-0.1281,0.3106 -0.1935,0.6437 -0.1923,0.9799l0.011,-0.0022zm5.3887,-13.21003l-4.0196,9.72473l4.4899,0l4.0195,-9.72914l-4.4898,0.00441z"/>
    <path stroke="null" id="svg_5" fill="var(--yb-logo-property, #232A31)" d="m94.903038,32.698304c0,-1.13826 0.7077,-1.63365 1.6087,-1.63365c0.4079,-0.00334 0.8112,0.08547 1.1801,0.25981l0,-3.24526c-0.5953,-0.25764 -1.2395,-0.38236 -1.8878,-0.36549c-3.0261,0 -4.8063,1.86922 -4.8063,4.89872l0,0.34568l-1.4372,0l0,3.15939l1.4372,0l0,7.58695l3.9053,0l0,-7.58695l2.6372,0l0,-3.15939l-2.6372,0l0,-0.25981zm7.9116,11.00835l0,-10.74636l-3.9206,0l0,10.74636l3.9206,0zm0.2352,-13.90576c-0.0081,-0.57856 -0.2432,-1.13067 -0.6545,-1.53692c-0.4113,-0.40625 -0.9656,-0.63398 -1.5432,-0.63392c-0.5776,-0.00006 -1.132,0.22767 -1.5432,0.63392c-0.4113,0.40625 -0.6464,0.95836 -0.6545,1.53692c0.0081,0.57857 0.2432,1.13068 0.6545,1.53693c0.4112,0.40625 0.9656,0.63398 1.5432,0.63392c0.5776,0.00006 1.1319,-0.22767 1.5432,-0.63392c0.4113,-0.40625 0.6464,-0.95836 0.6545,-1.53693l0,0zm21.1966,3.1594l0,1.13827c-0.659,-0.9247 -1.822,-1.4399 -3.11,-1.4399c-2.9183,0 -5.0413,2.51431 -5.0413,5.67369c0,3.1594 2.101,5.6737 5.0413,5.6737c1.288,0 2.418,-0.5152 3.11,-1.4399l0,1.1405l3.863,0l0,-10.74636l-3.863,0zm0.108,5.37206c-0.001,0.2886 -0.058,0.5742 -0.17,0.8402c-0.112,0.266 -0.275,0.5071 -0.48,0.7092c-0.206,0.202 -0.45,0.3611 -0.717,0.4678c-0.268,0.1067 -0.554,0.1589 -0.842,0.1537c-0.288,0.0055 -0.575,-0.0465 -0.843,-0.1531c-0.267,-0.1065 -0.511,-0.2655 -0.717,-0.4676c-0.206,-0.2021 -0.37,-0.4433 -0.481,-0.7095c-0.112,-0.2661 -0.17,-0.5519 -0.17,-0.8407c0,-0.2887 0.058,-0.5745 0.17,-0.84066c0.111,-0.26615 0.275,-0.50733 0.481,-0.70944c0.206,-0.20211 0.45,-0.36109 0.717,-0.46767c0.268,-0.10657 0.555,-0.15861 0.843,-0.15305c0.288,-0.00527 0.574,0.04699 0.842,0.1537c0.267,0.10671 0.511,0.26575 0.717,0.46783c0.205,0.20208 0.368,0.44314 0.48,0.70914c0.112,0.26605 0.169,0.55165 0.17,0.84015l0,0zm12.041,5.3721l3.925,0l0,-6.82518c0,-2.62219 -1.438,-4.23381 -3.736,-4.23381c-1.266,0 -2.297,0.53721 -2.919,1.54117l0,-1.24615l-3.923,0l0,10.74637l3.927,0l0,-5.7243c0,-1.10088 0.537,-1.76138 1.394,-1.76138c0.857,0 1.332,0.60324 1.332,1.63358l0,5.8697zm-25.2956,0l3.9272,0l0,-6.82518c0,-2.62219 -1.4372,-4.23381 -3.736,-4.23381c-1.2658,0 -2.2944,0.53721 -2.9185,1.54117l0,-1.24615l-3.9228,0l0,10.74637l3.925,0l0,-5.7243c0,-1.10088 0.5362,-1.76138 1.3955,-1.76138c0.8593,0 1.3186,0.60324 1.3186,1.63358l0.011,5.8697zm30.2926,-5.3743c0,3.4831 2.49,5.6737 5.729,5.6737c0.893,0.0039 1.775,-0.202 2.574,-0.601l0,-3.5689c-0.566,0.417 -1.249,0.6429 -1.952,0.6451c-1.373,0 -2.382,-0.8587 -2.382,-2.1489c0,-1.29016 1.031,-2.14882 2.382,-2.14882c0.696,0.00072 1.376,0.21007 1.952,0.60108l0,-3.56672c-0.786,-0.36738 -1.643,-0.55823 -2.51,-0.55921c-3.389,0 -5.793,2.38439 -5.793,5.67367l0,0zm16.562,1.7415c-0.197,0.2874 -0.464,0.5193 -0.775,0.6735c-0.312,0.1542 -0.658,0.2256 -1.005,0.2072c-1.029,0 -1.866,-0.6605 -1.93,-1.6336l7.402,0c0.028,-0.2714 0.042,-0.544 0.042,-0.8168c0,-3.52272 -2.275,-5.84547 -5.578,-5.84547c-0.751,-0.01497 -1.497,0.1221 -2.193,0.40303c-0.697,0.28094 -1.33,0.69995 -1.861,1.23186c-0.531,0.53191 -0.949,1.16577 -1.229,1.86357c-0.281,0.69781 -0.417,1.44518 -0.403,2.19731c0,3.4169 2.231,5.6516 5.728,5.6516c2.36,0 4.12,-0.9027 5.149,-2.642l-3.347,-1.2902zm-3.69,-2.98761c0.086,-0.88067 0.837,-1.46191 1.824,-1.46191c0.987,0 1.716,0.58124 1.802,1.46191l-3.626,0z"/>
   </g>
  </g>
 </g>
</svg>